<mxfile host="app.diagrams.net" modified="2023-07-19T14:09:01.490Z" agent="Mozilla/5.0 (Windows NT 10.0; Win64; x64) AppleWebKit/537.36 (KHTML, like Gecko) Chrome/114.0.0.0 Safari/537.36" etag="DhFw_-kUggbJpQDYY7Me" version="21.6.2" type="github">
  <diagram name="第 1 页" id="P5DjyT1nCmXkOuZMyLEL">
    <mxGraphModel dx="2514" dy="2058" grid="1" gridSize="10" guides="1" tooltips="1" connect="1" arrows="1" fold="1" page="1" pageScale="1" pageWidth="827" pageHeight="1169" math="0" shadow="0">
      <root>
        <mxCell id="0" />
        <mxCell id="1" parent="0" />
        <mxCell id="1CUh_Ahv0wJT-TH76ez1-8" value="" style="edgeStyle=orthogonalEdgeStyle;rounded=0;orthogonalLoop=1;jettySize=auto;html=1;" edge="1" parent="1" source="1CUh_Ahv0wJT-TH76ez1-4" target="1CUh_Ahv0wJT-TH76ez1-7">
          <mxGeometry relative="1" as="geometry">
            <Array as="points">
              <mxPoint x="-10" y="370" />
              <mxPoint x="-10" y="200" />
            </Array>
          </mxGeometry>
        </mxCell>
        <mxCell id="1CUh_Ahv0wJT-TH76ez1-10" value="" style="edgeStyle=orthogonalEdgeStyle;rounded=0;orthogonalLoop=1;jettySize=auto;html=1;" edge="1" parent="1" source="1CUh_Ahv0wJT-TH76ez1-23" target="1CUh_Ahv0wJT-TH76ez1-9">
          <mxGeometry relative="1" as="geometry">
            <Array as="points">
              <mxPoint x="90" y="430" />
              <mxPoint x="90" y="430" />
            </Array>
          </mxGeometry>
        </mxCell>
        <mxCell id="1CUh_Ahv0wJT-TH76ez1-12" value="" style="edgeStyle=orthogonalEdgeStyle;rounded=0;orthogonalLoop=1;jettySize=auto;html=1;" edge="1" parent="1" source="1CUh_Ahv0wJT-TH76ez1-13" target="1CUh_Ahv0wJT-TH76ez1-11">
          <mxGeometry relative="1" as="geometry">
            <Array as="points" />
          </mxGeometry>
        </mxCell>
        <mxCell id="1CUh_Ahv0wJT-TH76ez1-4" value="用户" style="ellipse;whiteSpace=wrap;html=1;" vertex="1" parent="1">
          <mxGeometry x="190" y="330" width="120" height="80" as="geometry" />
        </mxCell>
        <mxCell id="1CUh_Ahv0wJT-TH76ez1-7" value="密码" style="whiteSpace=wrap;html=1;" vertex="1" parent="1">
          <mxGeometry x="-160" y="170" width="120" height="60" as="geometry" />
        </mxCell>
        <mxCell id="1CUh_Ahv0wJT-TH76ez1-9" value="账号类型" style="whiteSpace=wrap;html=1;" vertex="1" parent="1">
          <mxGeometry x="30" y="600" width="120" height="60" as="geometry" />
        </mxCell>
        <mxCell id="1CUh_Ahv0wJT-TH76ez1-16" value="" style="edgeStyle=orthogonalEdgeStyle;rounded=0;orthogonalLoop=1;jettySize=auto;html=1;" edge="1" parent="1" source="1CUh_Ahv0wJT-TH76ez1-11" target="1CUh_Ahv0wJT-TH76ez1-15">
          <mxGeometry relative="1" as="geometry" />
        </mxCell>
        <mxCell id="1CUh_Ahv0wJT-TH76ez1-18" value="" style="edgeStyle=orthogonalEdgeStyle;rounded=0;orthogonalLoop=1;jettySize=auto;html=1;" edge="1" parent="1" source="1CUh_Ahv0wJT-TH76ez1-11" target="1CUh_Ahv0wJT-TH76ez1-17">
          <mxGeometry relative="1" as="geometry" />
        </mxCell>
        <mxCell id="1CUh_Ahv0wJT-TH76ez1-11" value="专注" style="whiteSpace=wrap;html=1;" vertex="1" parent="1">
          <mxGeometry x="370" y="120" width="120" height="60" as="geometry" />
        </mxCell>
        <mxCell id="1CUh_Ahv0wJT-TH76ez1-14" value="" style="edgeStyle=orthogonalEdgeStyle;rounded=0;orthogonalLoop=1;jettySize=auto;html=1;" edge="1" parent="1" source="1CUh_Ahv0wJT-TH76ez1-4" target="1CUh_Ahv0wJT-TH76ez1-13">
          <mxGeometry relative="1" as="geometry">
            <mxPoint x="310" y="370" as="sourcePoint" />
            <mxPoint x="430" y="180" as="targetPoint" />
            <Array as="points">
              <mxPoint x="430" y="370" />
            </Array>
          </mxGeometry>
        </mxCell>
        <mxCell id="1CUh_Ahv0wJT-TH76ez1-20" value="" style="edgeStyle=orthogonalEdgeStyle;rounded=0;orthogonalLoop=1;jettySize=auto;html=1;" edge="1" parent="1" source="1CUh_Ahv0wJT-TH76ez1-13" target="1CUh_Ahv0wJT-TH76ez1-19">
          <mxGeometry relative="1" as="geometry" />
        </mxCell>
        <mxCell id="1CUh_Ahv0wJT-TH76ez1-22" value="" style="edgeStyle=orthogonalEdgeStyle;rounded=0;orthogonalLoop=1;jettySize=auto;html=1;" edge="1" parent="1" source="1CUh_Ahv0wJT-TH76ez1-13" target="1CUh_Ahv0wJT-TH76ez1-21">
          <mxGeometry relative="1" as="geometry" />
        </mxCell>
        <mxCell id="1CUh_Ahv0wJT-TH76ez1-13" value="打卡" style="whiteSpace=wrap;html=1;aspect=fixed;" vertex="1" parent="1">
          <mxGeometry x="390" y="490" width="80" height="80" as="geometry" />
        </mxCell>
        <mxCell id="1CUh_Ahv0wJT-TH76ez1-15" value="时间" style="whiteSpace=wrap;html=1;" vertex="1" parent="1">
          <mxGeometry x="620" y="120" width="120" height="60" as="geometry" />
        </mxCell>
        <mxCell id="1CUh_Ahv0wJT-TH76ez1-17" value="事务" style="whiteSpace=wrap;html=1;" vertex="1" parent="1">
          <mxGeometry x="370" y="-20" width="120" height="60" as="geometry" />
        </mxCell>
        <mxCell id="1CUh_Ahv0wJT-TH76ez1-19" value="流动座位" style="whiteSpace=wrap;html=1;aspect=fixed;" vertex="1" parent="1">
          <mxGeometry x="550" y="490" width="80" height="80" as="geometry" />
        </mxCell>
        <mxCell id="1CUh_Ahv0wJT-TH76ez1-21" value="固定座位" style="whiteSpace=wrap;html=1;aspect=fixed;" vertex="1" parent="1">
          <mxGeometry x="390" y="650" width="80" height="80" as="geometry" />
        </mxCell>
        <mxCell id="1CUh_Ahv0wJT-TH76ez1-24" value="" style="edgeStyle=orthogonalEdgeStyle;rounded=0;orthogonalLoop=1;jettySize=auto;html=1;" edge="1" parent="1" source="1CUh_Ahv0wJT-TH76ez1-4" target="1CUh_Ahv0wJT-TH76ez1-23">
          <mxGeometry relative="1" as="geometry">
            <mxPoint x="190" y="370" as="sourcePoint" />
            <mxPoint x="20" y="500" as="targetPoint" />
          </mxGeometry>
        </mxCell>
        <mxCell id="1CUh_Ahv0wJT-TH76ez1-28" value="" style="edgeStyle=orthogonalEdgeStyle;rounded=0;orthogonalLoop=1;jettySize=auto;html=1;" edge="1" parent="1" source="1CUh_Ahv0wJT-TH76ez1-29" target="1CUh_Ahv0wJT-TH76ez1-27">
          <mxGeometry relative="1" as="geometry">
            <Array as="points">
              <mxPoint x="-400" y="370" />
              <mxPoint x="-240" y="370" />
            </Array>
          </mxGeometry>
        </mxCell>
        <mxCell id="1CUh_Ahv0wJT-TH76ez1-23" value="普通成员" style="rounded=0;whiteSpace=wrap;html=1;" vertex="1" parent="1">
          <mxGeometry x="-10" y="340" width="120" height="60" as="geometry" />
        </mxCell>
        <mxCell id="1CUh_Ahv0wJT-TH76ez1-25" value="真名" style="rounded=0;whiteSpace=wrap;html=1;" vertex="1" parent="1">
          <mxGeometry x="-460" y="190" width="120" height="60" as="geometry" />
        </mxCell>
        <mxCell id="1CUh_Ahv0wJT-TH76ez1-27" value="昵称" style="rounded=0;whiteSpace=wrap;html=1;" vertex="1" parent="1">
          <mxGeometry x="-150" y="340" width="120" height="60" as="geometry" />
        </mxCell>
        <mxCell id="1CUh_Ahv0wJT-TH76ez1-29" value="签名" style="rounded=0;whiteSpace=wrap;html=1;" vertex="1" parent="1">
          <mxGeometry x="-460" y="700" width="120" height="60" as="geometry" />
        </mxCell>
        <mxCell id="1CUh_Ahv0wJT-TH76ez1-34" value="" style="edgeStyle=orthogonalEdgeStyle;rounded=0;orthogonalLoop=1;jettySize=auto;html=1;" edge="1" parent="1" source="1CUh_Ahv0wJT-TH76ez1-23" target="1CUh_Ahv0wJT-TH76ez1-33">
          <mxGeometry relative="1" as="geometry">
            <mxPoint x="-10" y="370" as="sourcePoint" />
            <mxPoint x="-430" y="250" as="targetPoint" />
            <Array as="points">
              <mxPoint x="-10" y="555" />
            </Array>
          </mxGeometry>
        </mxCell>
        <mxCell id="1CUh_Ahv0wJT-TH76ez1-33" value="学号" style="rounded=0;whiteSpace=wrap;html=1;" vertex="1" parent="1">
          <mxGeometry x="-160" y="525" width="120" height="60" as="geometry" />
        </mxCell>
        <mxCell id="1CUh_Ahv0wJT-TH76ez1-35" value="" style="endArrow=none;html=1;rounded=0;entryX=0;entryY=0.5;entryDx=0;entryDy=0;" edge="1" parent="1" target="1CUh_Ahv0wJT-TH76ez1-23">
          <mxGeometry width="50" height="50" relative="1" as="geometry">
            <mxPoint x="-40" y="370" as="sourcePoint" />
            <mxPoint x="180" y="420" as="targetPoint" />
            <Array as="points">
              <mxPoint x="-40" y="370" />
            </Array>
          </mxGeometry>
        </mxCell>
      </root>
    </mxGraphModel>
  </diagram>
</mxfile>
